Coordinates
nRows=9
nColumns=38

# SIMM Motion File Header:
name Coordinates
datacolumns 38
datarows 9
otherdata 1
range 0.61950000000000005000 0.62750000000000006000

Units are S.I. units (second, meters, Newtons, ...)
Angles are in degrees.

endheader
time	pelvis_tilt	pelvis_list	pelvis_rotation	pelvis_tx	pelvis_ty	pelvis_tz	hip_flexion_r	hip_adduction_r	hip_rotation_r	knee_angle_r	ankle_angle_r	subtalar_angle_r	mtp_angle_r	hip_flexion_l	hip_adduction_l	hip_rotation_l	knee_angle_l	ankle_angle_l	subtalar_angle_l	mtp_angle_l	lumbar_extension	lumbar_bending	lumbar_rotation	arm_flex_r	arm_add_r	arm_rot_r	elbow_flex_r	pro_sup_r	wrist_flex_r	wrist_dev_r	arm_flex_l	arm_add_l	arm_rot_l	elbow_flex_l	pro_sup_l	wrist_flex_l	wrist_dev_l
      0.61950000000000005000	     -4.88225761806132570000	      6.02091462401834930000	      6.28202895612732170000	      0.93029061306178185000	      1.01510852979099590000	     -0.36626610354356787000	    -15.32798688142017500000	      4.04509394128192580000	     -3.20407215482912420000	    -66.14198154724424200000	    -14.69034121522091300000	     -0.00000000000003961924	     -0.00000000000012515348	     34.91078145143416100000	     12.39780301305343700000	      5.45461372986934290000	    -24.12816114719543500000	     -3.84784569506625830000	      0.00000000000002828364	      0.00000000000001898981	     -4.31323562837459380000	     -5.85310629658050190000	     12.63262199955818200000	    -20.45772329328390900000	    -12.88478553618149600000	     -0.80100851742873691000	    125.73332528042752000000	    103.09011735870452000000	     -0.00000000000000070546	     -0.00000000000003594611	    -44.17794871339545900000	     -8.54266787918897920000	    -13.32749240906475000000	    126.84017956036632000000	     94.04317966695228400000	      0.00000000000000887320	     -0.00000000000001125960
      0.62050000000000005000	     -4.86151977617795160000	      6.05499083792015650000	      6.31833390534584270000	      0.93022503336076434000	      1.01465930950072900000	     -0.36627044150670240000	    -15.10023661365661600000	      3.97634711386581150000	     -3.36557191959629790000	    -66.91470647116891300000	    -14.33838679860270700000	     -0.00000000000003987511	     -0.00000000000012576357	     34.75274966866638200000	     12.45360414817610600000	      5.47328841688237230000	    -23.99885371600158000000	     -3.92595771619340980000	      0.00000000000002842407	      0.00000000000001910959	     -4.36585553666712920000	     -5.90867221789411890000	     12.52669323489884300000	    -20.47347592927454200000	    -12.87813165633641800000	     -0.81195538901931030000	    125.42823765254799000000	    103.15814854159976000000	     -0.00000000000000070434	     -0.00000000000003615163	    -44.06154601144615400000	     -8.54894063349767920000	    -13.36119814705085700000	    126.73597935332180000000	     94.04062547695144800000	      0.00000000000000895371	     -0.00000000000001128851
      0.62150000000000005000	     -4.84393073659137040000	      6.08643401193498420000	      6.35428497394681280000	      0.93015551888752779000	      1.01419584321672020000	     -0.36627596551744640000	    -14.86550239429263900000	      3.90931901642295940000	     -3.52251147853747690000	    -67.68738545420509900000	    -13.98269657788513600000	     -0.00000000000004013205	     -0.00000000000012637451	     34.60258677331351900000	     12.50850891405865500000	      5.49528638688354220000	    -23.89226658465912900000	     -3.99025212810386790000	      0.00000000000002856535	      0.00000000000001923254	     -4.41465646768381690000	     -5.96114326358832970000	     12.42009031397826200000	    -20.49013024271779300000	    -12.87258742348200600000	     -0.82311819788286467000	    125.12176317515824000000	    103.22826644500098000000	     -0.00000000000000070312	     -0.00000000000003635729	    -43.94262796211636200000	     -8.55797043922725640000	    -13.39202788186267600000	    126.63030373943303000000	     94.03623510251698300000	      0.00000000000000903589	     -0.00000000000001131915
      0.62250000000000005000	     -4.82939957835308760000	      6.11530183262252790000	      6.38985779537614200000	      0.93008187802664166000	      1.01371836585979570000	     -0.36628267822602267000	    -14.62379352090225700000	      3.84396059654770150000	     -3.67489878335739690000	    -68.46002033943408100000	    -13.62371794420448100000	     -0.00000000000004039013	     -0.00000000000012698439	     34.46023366799156000000	     12.56253722093315000000	      5.52034973935599990000	    -23.80851633001644200000	     -4.03979749951748880000	      0.00000000000002870674	      0.00000000000001935318	     -4.45978386760795510000	     -6.01057083257799900000	     12.31285343025907200000	    -20.50768351270127000000	    -12.86813469202214200000	     -0.83450145368504758000	    124.81401743173734000000	    103.30019825878188000000	     -0.00000000000000070233	     -0.00000000000003656410	    -43.82116436786174100000	     -8.56976878143838940000	    -13.41988310283772100000	    126.52316377905693000000	     94.02999437617853600000	      0.00000000000000911974	     -0.00000000000001135031
      0.62350000000000005000	     -4.81787921607244040000	      6.14165428326189300000	      6.42502783917657090000	      0.93000390419675394000	      1.01322705226013120000	     -0.36629057701050460000	    -14.37506782242898100000	      3.78020857881126340000	     -3.82275049996080350000	    -69.23262685921722000000	    -13.26190811850005800000	     -0.00000000000004064903	     -0.00000000000012759219	     34.32567709904662900000	     12.61571196312185000000	      5.54819522929180660000	    -23.74770693952958600000	     -4.07369500177781600000	      0.00000000000002884829	      0.00000000000001947278	     -4.50133450640461420000	     -6.05701575673572010000	     12.20502409552980600000	    -20.52613811940955900000	    -12.86475027779408500000	     -0.84611091479402978000	    124.50510390408543000000	    103.37366352235904000000	     -0.00000000000000070200	     -0.00000000000003677265	    -43.69713219893461800000	     -8.58434569555367770000	    -13.44467230988455600000	    126.41456737955666000000	     94.02189788588738400000	      0.00000000000000920255	     -0.00000000000001138285
      0.62450000000000006000	     -4.80936440144052390000	      6.16555313848700770000	      6.45977277859664230000	      0.92992137566305000000	      1.01272202163595830000	     -0.36629965657107705000	    -14.11923502358028400000	      3.71798720522960790000	     -3.96609293338607570000	    -70.00523264533804000000	    -12.89773244043352900000	     -0.00000000000004090329	     -0.00000000000012820354	     34.19894665447202400000	     12.66805998092553900000	      5.57851846851369170000	    -23.70992844322274700000	     -4.09108581951528820000	      0.00000000000002898401	      0.00000000000001959210	     -4.53935928079351300000	     -6.10054767425344210000	     12.09664246790491000000	    -20.54550036588694100000	    -12.86240607283206400000	     -0.85795369486250772000	    124.19511348108701000000	    103.44837624282214000000	     -0.00000000000000070188	     -0.00000000000003698324	    -43.57051475116077900000	     -8.60170990482875730000	    -13.46631131618287100000	    126.30451930944109000000	     94.01194869832700400000	      0.00000000000000928505	     -0.00000000000001141942
      0.62550000000000006000	     -4.80392576889335030000	      6.18705631302664290000	      6.49407421179667210000	      0.92983404732086494000	      1.01220328393055300000	     -0.36630990947373493000	    -13.85611594337827600000	      3.65721075305575690000	     -4.10495794588210130000	    -70.77788780711854600000	    -12.53165834316217400000	     -0.00000000000004115573	     -0.00000000000012881874	     34.08015547311714500000	     12.71960904605580500000	      5.61099196812495740000	    -23.69526289480510100000	     -4.09116717538409520000	      0.00000000000002911638	      0.00000000000001970803	     -4.57382374629065060000	     -6.14124352293446930000	     11.98774994758548500000	    -20.56578643419862800000	    -12.86106686155569900000	     -0.87003797881370137000	    123.88412203353174000000	    103.52404898268935000000	     -0.00000000000000070237	     -0.00000000000003719555	    -43.44130738867264100000	     -8.62186987639245930000	    -13.48472436170950100000	    126.19301952048863000000	     94.00015822101391900000	      0.00000000000000936868	     -0.00000000000001145758
      0.62650000000000006000	     -4.80175484407917440000	      6.20620880303367260000	      6.52791937946142210000	      0.92974163927175901000	      1.01167066764435230000	     -0.36632132639903836000	    -13.58538791751311900000	      3.59778839491622680000	     -4.23937683338217040000	    -71.55067874789141100000	    -12.16414933135040500000	     -0.00000000000004140318	     -0.00000000000012943714	     33.96955489816225100000	     12.77038214368760000000	      5.64526193797393190000	    -23.70379353561903500000	     -4.07320985908138140000	      0.00000000000002924812	      0.00000000000001982503	     -4.60455554961977230000	     -6.17918377609316230000	     11.87839343078192500000	    -20.58703063537737100000	    -12.86068791543910800000	     -0.88237282417945173000	    123.57218769647559000000	    103.60039729447102000000	     -0.00000000000000070309	     -0.00000000000003740831	    -43.30952526177495100000	     -8.64483473262897560000	    -13.49984517069458100000	    126.08006078362990000000	     93.98654633433423600000	      0.00000000000000945327	     -0.00000000000001149435
      0.62750000000000006000	     -4.80289291591906140000	      6.22308096854164730000	      6.56130369190723870000	      0.92964389576789885000	      1.01112425995528480000	     -0.36633390872961119000	    -13.30691639686790900000	      3.53961857679158020000	     -4.36941434048004050000	    -72.32363439617591900000	    -11.79569334182288500000	     -0.00000000000004165307	     -0.00000000000013005346	     33.86720583466580300000	     12.82042477114692000000	      5.68099367979341710000	    -23.73554692283223500000	     -4.03654743823447770000	      0.00000000000002937865	      0.00000000000001994061	     -4.63156219248082830000	     -6.21445830070738210000	     11.76858791308932200000	    -20.60923124080761700000	    -12.86123238160572900000	     -0.89497105452197523000	    123.25936512866556000000	    103.67712715850064000000	     -0.00000000000000070384	     -0.00000000000003762204	    -43.17515353283737800000	     -8.67060710336036240000	    -13.51161103383222600000	    125.96564094204017000000	     93.97114020314900500000	      0.00000000000000953720	     -0.00000000000001153431
